<?xml version="1.0" encoding="UTF-8" standalone="no"?>
<!-- Created with Inkscape (http://www.inkscape.org/) -->

<svg
   xmlns:dc="http://purl.org/dc/elements/1.1/"
   xmlns:cc="http://creativecommons.org/ns#"
   xmlns:rdf="http://www.w3.org/1999/02/22-rdf-syntax-ns#"
   xmlns:svg="http://www.w3.org/2000/svg"
   xmlns="http://www.w3.org/2000/svg"
   xmlns:sodipodi="http://sodipodi.sourceforge.net/DTD/sodipodi-0.dtd"
   xmlns:inkscape="http://www.inkscape.org/namespaces/inkscape"
   width="711.8382"
   height="686.46179"
   viewBox="0 0 188.34053 181.62635"
   version="1.1"
   id="svg8"
   inkscape:version="0.92.2pre0 (973e216, 2017-07-25)"
   sodipodi:docname="icon.svg">
  <defs
     id="defs2" />
  <sodipodi:namedview
     id="base"
     pagecolor="#ffffff"
     bordercolor="#666666"
     borderopacity="1.0"
     inkscape:pageopacity="0.0"
     inkscape:pageshadow="2"
     inkscape:zoom="0.49497475"
     inkscape:cx="190.87003"
     inkscape:cy="343.0363"
     inkscape:document-units="mm"
     inkscape:current-layer="layer1"
     showgrid="false"
     showborder="true"
     fit-margin-top="30"
     fit-margin-left="30"
     fit-margin-right="30"
     fit-margin-bottom="30"
     units="px"
     inkscape:window-width="1391"
     inkscape:window-height="901"
     inkscape:window-x="693"
     inkscape:window-y="284"
     inkscape:window-maximized="0" />
  <metadata
     id="metadata5">
    <rdf:RDF>
      <cc:Work
         rdf:about="">
        <dc:format>image/svg+xml</dc:format>
        <dc:type
           rdf:resource="http://purl.org/dc/dcmitype/StillImage" />
        <dc:title></dc:title>
      </cc:Work>
    </rdf:RDF>
  </metadata>
  <g
     inkscape:label="Layer 1"
     inkscape:groupmode="layer"
     id="layer1"
     transform="translate(-1.2767509,-23.118451)">
    <path
       style="fill:#c90000;fill-opacity:1;stroke-width:0.35277778"
       d="m 88.698411,196.32623 c -14.75394,-1.82727 -28.21856,-7.40198 -40.74583,-16.86985 -3.40064,-2.57014 -11.28707,-10.36355 -14.07329,-13.9073 -2.44877,-3.11455 -5.65227,-7.90594 -7.40764,-11.07938 l -1.30072,-2.35153 -5.1732,1.73305 c -2.84526,0.95319 -5.29122,1.6145 -5.43547,1.46959 -0.50337,-0.5057 -5.61022,-16.7898 -5.33747,-17.01952 0.24547,-0.20674 25.57236,-8.46957 26.34046,-8.59351 0.17197,-0.0277 0.89543,1.61643 1.60769,3.65372 3.7544,10.73881 8.67826,18.83623 15.8302,26.0332 9.70819,9.76934 22.50133,16.29094 36.22444,18.46627 3.72046,0.58975 15.435919,0.59172 19.049999,0.003 27.42369,-4.4657 48.06053,-24.1565 53.85047,-51.3818 0.73881,-3.47398 0.82448,-4.78613 0.81777,-12.52361 -0.008,-9.64826 -0.36619,-12.12991 -2.87183,-19.917299 -5.4301,-16.87638 -17.71171,-30.72933 -34.13109,-38.49789 -6.55405,-3.10094 -14.93716,-5.27684 -21.72227,-5.63816 -2.03729,-0.10849 -4.06135,-0.26952 -4.497909,-0.35784 l -0.79375,-0.16059 v -9.16533 -9.1655 h 0.83071 c 0.456889,0 2.877829,0.16048 5.379859,0.35661 37.63874,2.9505 68.58588,30.94258 75.26954,68.08228 3.72076,20.675469 -0.8234,42.703599 -12.40011,60.110289 -13.80207,20.75273 -36.19402,34.38406 -60.61334,36.89899 -4.57225,0.47089 -14.198199,0.37931 -18.697219,-0.17789 z m 4.65739,-49.03633 c -5.21719,-1.19398 -9.38436,-3.50667 -12.65022,-7.02061 -3.2209,-3.46555 -5.41273,-8.41262 -5.41273,-12.21682 v -1.04097 h 7.03055 7.03054 l 0.40434,1.94765 c 0.65823,3.17073 3.2805,6.02547 6.30697,6.86614 3.1367,0.87129 7.321819,0.11439 9.341329,-1.68944 2.67105,-2.38578 4.00764,-7.77639 3.32932,-13.42752 -0.75481,-6.2883 -4.54254,-9.57183 -11.041659,-9.57183 -3.2477,0 -5.56342,0.71528 -7.76111,2.39723 l -1.76388,1.34997 -5.46402,-1.36979 c -3.00521,-0.75339 -5.51583,-1.4216 -5.57915,-1.48492 -0.0961,-0.0961 2.04946,-19.606429 3.57038,-32.466099 l 0.41723,-3.52777 h 19.931939 19.93195 l 0.0967,5.90902 0.0967,5.90903 h -14.11964 c -7.765809,0 -14.120209,0.0397 -14.120899,0.0882 -7.1e-4,0.0485 -0.397,3.34256 -0.88069,7.32013 -0.48369,3.97757 -0.88,7.265999 -0.88069,7.307609 -7e-4,0.0416 0.75143,-0.24698 1.67138,-0.64132 5.8173,-2.493579 13.607069,-2.272929 19.340039,0.54784 5.45023,2.68165 9.37927,8.38257 10.58852,15.36365 0.691,3.98918 0.52021,10.32162 -0.36599,13.56977 -2.0816,7.62963 -7.89822,13.44813 -15.54877,15.55383 -2.92733,0.80569 -10.595189,0.99146 -13.498489,0.32702 z"
       id="path3764"
       inkscape:connector-curvature="0" />
  </g>
</svg>
